<svg width="32px" height="32px" viewBox="0 0 100 98" version="1.1" xmlns="http://www.w3.org/2000/svg" xmlns:xlink="http://www.w3.org/1999/xlink">
    <g id="Page-1" stroke="none" stroke-width="1" fill="none" fill-rule="evenodd">
        <g id="Stream-Jokes" transform="translate(-75.000000, -10.000000)">
            <g id="Logo" transform="translate(80.000000, 15.000000)">
                <ellipse id="Outer-Circle" stroke="#FFFFFF" stroke-width="10" fill-opacity="1" fill="#343a40" cx="45" cy="44" rx="45" ry="44"></ellipse>
                <g id="Group" transform="translate(27.000000, 22.000000)" fill="#FFFFFF">
                    <path d="M7.04252495,20.6359121 C7.41455667,20.134936 8.09081564,19.2839114 8.09081564,18.0399918 C8.09081564,17.4545472 8.09081564,16.9648631 8.09081564,15.974613 C8.09081564,15.3144462 8.09081564,14.6630552 8.09081564,14.0204398 L8.0928758,14 L4.33804641,14 C3.55869761,14 2.7793488,14 2,14 C0.8954305,14 6.84304708e-15,13.1045695 6.21724894e-15,12 L7.10542736e-15,2 C6.97015661e-15,0.8954305 0.8954305,3.7556198e-15 2,3.55271368e-15 L12.0000194,3.55271368e-15 C13.1045889,4.33086235e-15 14.0000194,0.8954305 14.0000194,2 L14.0000194,12 C14.0000194,12.0029723 14.000013,12.005943 14,12.0089123 L14,18.0399918 C14,18.3841832 13.8784126,19.6538333 13.652504,20.632334 C13.5820276,20.9375956 13.3537332,21.5528732 12.9676209,22.4781667 L12.9676368,22.4781734 C12.9140328,22.6066319 12.847165,22.7291435 12.7681205,22.8437164 C12.0823222,23.8377632 11.6888209,24.3619497 11.5876167,24.4162759 C11.5583622,24.4319796 11.5293413,24.447558 11.5005518,24.4630117 C11.2387431,24.797864 11.0030507,25.0626504 10.7934746,25.2573707 C10.575432,25.4599575 9.34010036,26.3220035 8.99316834,26.5451908 C8.66490784,26.7563664 8.29954791,26.9102618 7.89708854,27.0068771 L7.89708273,27.0068529 C7.85952818,27.0158683 7.82224264,27.0259696 7.78527304,27.0371441 C6.34836457,27.4714678 5.06765764,27.6886296 3.94315225,27.6886296 C2.86998971,27.6886296 2.00001958,26.8186595 2.00001958,25.7454969 L1.99999319,23.7902886 C1.99999319,22.7171115 2.86997514,21.8471295 3.94315225,21.8471295 C4.16079083,21.8471295 6.13598346,21.3382424 6.98803275,20.6791383 C7.00668186,20.6647122 7.02483327,20.6503026 7.04252495,20.6359121 Z" id="Combined-Shape"></path>
                    <path d="M29.0425249,20.6359121 C29.4145567,20.134936 30.0908156,19.2839114 30.0908156,18.0399918 C30.0908156,17.4545472 30.0908156,16.9648631 30.0908156,15.974613 C30.0908156,15.3144462 30.0908156,14.6630552 30.0908156,14.0204398 L30.0928758,14 L26.3380464,14 C25.5586976,14 24.7793488,14 24,14 C22.8954305,14 22,13.1045695 22,12 L22,2 C22,0.8954305 22.8954305,3.7556198e-15 24,3.55271368e-15 L34.0000194,3.55271368e-15 C35.1045889,3.34980755e-15 36.0000194,0.8954305 36.0000194,2 L36.0000194,12 C36.0000194,12.0029723 36.000013,12.005943 36,12.0089123 L36,18.0399918 C36,18.3841832 35.8784126,19.6538333 35.652504,20.632334 C35.5820276,20.9375956 35.3537332,21.5528732 34.9676209,22.4781667 L34.9676368,22.4781734 C34.9140328,22.6066319 34.847165,22.7291435 34.7681205,22.8437164 C34.0823222,23.8377632 33.6888209,24.3619497 33.5876167,24.4162759 C33.5583622,24.4319796 33.5293413,24.447558 33.5005518,24.4630117 C33.2387431,24.797864 33.0030507,25.0626504 32.7934746,25.2573707 C32.575432,25.4599575 31.3401004,26.3220035 30.9931683,26.5451908 C30.6649078,26.7563664 30.2995479,26.9102618 29.8970885,27.0068771 L29.8970827,27.0068529 C29.8595282,27.0158683 29.8222426,27.0259696 29.785273,27.0371441 C28.3483646,27.4714678 27.0676576,27.6886296 25.9431523,27.6886296 C24.8699897,27.6886296 24.0000196,26.8186595 24.0000196,25.7454969 L23.9999932,23.7902886 C23.9999932,22.7171115 24.8699751,21.8471295 25.9431523,21.8471295 C26.1607908,21.8471295 28.1359835,21.3382424 28.9880327,20.6791383 C29.0066819,20.6647122 29.0248333,20.6503026 29.0425249,20.6359121 Z" id="Combined-Shape"></path>
                </g>
                <path d="M7,57 C11.3383297,57 15.6766594,57 20.014989,57 C22.9386903,57 24.000175,57 24.000175,62.7607072 C24.000175,72.7365545 38.9625206,77.9069858 45.5,77.9069858 C52.0374794,77.9069858 66.0562495,72.7365545 66.0562495,62.7607072 C66.0562495,56.4558268 66.8140145,57 70.3105577,57 C74.8737052,57 79.4368526,57 84,57 L84,57 C85.1045695,57 86,57.8954305 86,59 L86.0000091,66.9912116 C86.0000091,67.6268473 85.6978618,68.2246355 85.1860589,68.6015845 C67.1883272,81.8571291 53.9596409,88.4849014 45.5,88.4849014 C37.0403624,88.4849014 23.8116831,81.8571342 5.81396211,68.6015999 L5.81395295,68.6016123 C5.30214834,68.2246622 5,67.626872 5,66.9912343 L5,59 C5,57.8954305 5.8954305,57 7,57 Z" id="Rectangle" fill="#FFFFFF"></path>
            </g>
        </g>
    </g>
</svg>